<?xml version="1.0"?>
<svg version="1.1" xmlns="http://www.w3.org/2000/svg" width="400" height="200" style=""><path fill="#fafafa" d="M52.008,117.496q2.808-1.368,4.608-4.536q1.8-3.024,1.8-6.48q0-6.192-4.176-10.008q-4.176-3.744-10.512-3.744l-20.232,0l-0.864,0l-3.672,0l0,50.472l3.672,0l0.864,0l20.232,0q6.336,0,10.512-3.744q4.176-3.816,4.176-10.008q0-3.384-1.764-6.588t-4.644-5.364z M23.496,96.4l20.232,0q4.32,0,7.128,2.952q3.024,3.168,3.024,7.128q0,3.24-2.376,5.976q-2.232,2.448-5.904,3.24l-1.872,0l-20.232,0l0-19.296z M43.728,139.528l-20.232,0l0-19.296l20.232,0l1.872,0q3.672,0.792,5.904,3.24q2.376,2.736,2.376,5.976q0,3.888-3.024,7.056q-2.88,3.024-7.128,3.024z M70.28448,143.272l4.536,0l0-50.616l-4.536,0l0,50.616z M85.96896,143.2l4.464,0l0-30.528q0-6.048,4.608-10.8q4.608-4.608,10.656-4.608t10.8,4.608q4.608,4.752,4.608,10.8l0,30.528l4.464,0l0-30.528q0-8.208-5.832-14.04t-14.04-5.832q-8.064,0-13.896,5.832t-5.832,14.04l0,30.528z M160.47744,97.12l13.896,0l0-4.536l-13.896,0q-10.368,0-17.568,7.344q-7.272,7.416-7.272,18.504q0,10.296,7.272,17.568t17.568,7.272l9.216,0l4.68,0l0-4.608l0-23.04l-4.68,0l-11.016,0l0,4.608l11.016,0l0,18.432l-9.216,0q-8.208,0-14.184-5.976t-5.976-14.256q0-9,5.976-15.192q5.904-6.12,14.184-6.12z M189.26592,129.376q0-3.456,2.448-6.264q2.448-2.952,5.904-2.952l0.936,0l13.464,0l0-4.464l-13.464,0l-0.936,0q-3.672-0.72-6.012-3.168t-2.34-5.832q0-4.248,2.484-6.732t6.804-2.484l24.48,0l0-4.536l-24.48,0q-5.544,0-9.648,4.104q-4.104,3.96-4.104,9.648q0,3.6,1.368,6.552t4.032,4.248q-2.664,1.944-4.032,5.112t-1.368,6.768q0,5.616,4.104,9.576q4.176,4.176,9.648,4.176l24.48,0l0-4.752l-24.48,0q-4.32,0-6.804-2.448t-2.484-6.552z M237.7104,97.192l34.344,0l0-4.464l-38.808,0l0,0.864l0,49.608l4.464,0l0-22.464l18.216,0l0-4.68l-18.216,0l0-18.864z M280.68288,143.344l35.208,0l0-3.672l-30.744,0l0-46.872l-4.464,0l0,50.544z M324.51936,143.272l4.536,0l0-50.616l-4.536,0l0,50.616z M363.31584,118.072l17.136-25.344l-5.472,0l-14.4,21.6l-15.264-21.6l-4.608,0l17.136,25.344l-18,25.2l5.472,0l15.264-21.6l14.4,21.6l4.608,0z"/><path fill="#" d=""/></svg>
